**ABCDEFGHIJKLMNOPQRSTUVWXYZabcdefghijklmnopqrstuvwxyz**************************
**PARASOLID !"#$%&'()*+,-./:;<=>?@[\]^_`{|}~0123456789**************************
**PART1;
MC=AMD64;
MC_MODEL=Intel64 Family 6 Model 69 Stepping 1, GenuineIntel;
MC_ID=unknown;
OS=Windows_NT;
OS_RELEASE=unknown;
FRU=Parasolid Version 29.0, build 195, 12- 2-2016;
APPL=SOLIDWORKS 2017-2017109;
SITE=;
USER=unknown;
FORMAT=text;
GUISE=transmit;
KEY=User Library-3W-Led-1;
FILE=User Library-3W-Led-1.x_t;
DATE=Sun Oct 07 15:47:02 2018;
**PART2;
SCH=SCH_2900195_28101;
USFLD_SIZE=0;
**PART3;
**END_OF_HEADER*****************************************************************
T51 : TRANSMIT FILE created by modeller version 290019523 SCH_2900195_28101_1300
6203 0 10 19 CCCCCCCI4 mesh1006 0 I8 polyline1008 0 CCCCCCCCCCZ1 5 2 3 0 0 0 0 0
 0 0 1e3 1e-8 0 0 0 1 0 1 4 81 255 2 2 5 5 1 0 0 0 0 0 0 70 11 CI9 list_type0 0
 1 uI10 notransmit0 0 1 lCCCDCCDI12 finger_index0 0 1 dI12 finger_block1012 0 CZ
3 0 4 T1 0 0 1 20 1 6 6 11 255 4 3 0 1 7 8 1 9 0 0 0 12 33 CCCCCCI4 mesh1006 0 I
8 polyline1008 0 CCCCCCCDI5 owner1040 0 CCCCCCI13 boundary_mesh1006 0 I17 bounda
ry_polyline1008 0 CCCA16 index_map_offset0 0 1 dA9 index_map82 0 A17 node_id_ind
ex_map82 0 A20 schema_embedding_map82 0 A5 child12 0 A14 lowest_node_id0 0 1 dZ7
 2598 10 11 0 0 0 0 0 0 1e3 1e-8 4 12 0 1 0 1 1 13 14 15 16 0 0 17 18 19 0 0 0 0
 0 0 100 255 8 4 4 0 0 1 0 0 0 1 0 0 0 1 0 0 0 1 0 ?11 9 1 0 1 12 20 1 0 4 0 0 1
2 12 119 21 22 0 0 0 0 0 0 1e3 1e-8 9 23 7 1 0 1 1 24 25 26 27 0 0 28 29 30 0 0
 0 0 0 0 100 20 2 9 0 0 1 0 0 0 1 0 0 0 1 0 0 0 1 0 ?81 1 21 119 31 12 32 0 0 0
 0 70 22 0 4 T12 0 0 4 20 1 33 33 13 255 24 23 0 12 0 34 0 0 35 0 50 255 25 46 0
 34 36 0 0 +.00275 .0024 0 131418445149758e-30 -1 0 1 131418445149758e-30 0 31 2
55 26 47 0 29 37 0 0 +4336808689942015e-34 .0024 0 131418445149758e-30 -1 0 1 13
1418445149758e-30 0 .00275 29 255 27 18 0 30 0 0 0 .0057 0 19 8 CCCCCCCA5 owner1
2 0 Z28 27 0 12 35 0 38 V0 16 255 29 29 0 ?39 0 0 26 0 0 12 18 255 30 16 0 40 0
 0 27 ?12 17 255 40 0 41 40 40 30 0 0 0 0 ?15 255 41 52 0 40 42 43 14 255 42 34
 44 ?0 34 41 24 36 +0 0 0 34 38 15 43 33 0 45 42 0 17 45 0 43 45 45 0 39 29 0 0
 -17 39 0 46 39 39 0 45 29 0 0 +15 46 53 0 39 34 0 14 34 42 47 ?42 0 46 24 25 +0
 0 42 0 38 81 1 47 118 48 34 49 0 44 0 50 13 38 26 0 0 0 0 0 0 28 34 80 255 1 48
 51 52 9000 1 1 1 1 1 1 1 1 0 FFFFTFTFFFFFFF1 81 1 49 109 53 34 0 47 0 54 55 81
 1 44 117 48 42 54 0 0 47 56 82 255 1 50 1425670268 81 1 54 110 53 42 0 44 49 0
 57 82 1 56 1424752764 80 1 53 0 58 8001 0 0 0 0 3 5 0 0 0 FFFFTFTFFFFFFF2 83 25
5 3 57 1 1 1 79 255 15 58 SDL/TYSA_COLOUR83 3 55 1 1 1 79 14 52 SWEntUnchanged68
 255 36 45 0 42 0 25 0 +37 433680868994202e-33 .0024 0 131418445149758e-30 -1 0
 ?0 .0057 0 ?1 1 15770213417971e-29 0 0 134 255 37 8 0 12 0 26 59 +60 61 141 255
 59 36 59 59 37 136 255 60 2 4 3 3 6 FFF1 62 63 64 135 255 61 2 0 45 255 12 62 .
00275 .0024 0 .00276826231911283 .00480405658073102 0 .000735398066685512 .00567
830204886968 0 0 .0057 0 127 255 3 63 3 1 3 128 255 3 64 0 .796050359575443 1 19
 35 22 0 12 0 28 24 S0 74 4 CI16 index_map_offset0 0 1 dCCZ20 33 4 0 0 47 32 54
 21 0 0 0 0 0 0 0 0 0 0 0 0 0 0 0 0 81 2 32 94 65 12 0 21 0 0 66 0 80 2 65 67 68
 8004 0 0 0 0 3 5 0 0 0 FFTFFFFFFFFFFF2 3 83 1 66 1070 79 16 68 SDL/TYSA_DENSITY
80 1 31 69 70 8017 0 0 0 0 0 0 0 0 0 TTTTTTTTTTTTTF3 79 13 70 SDL/TYSA_NAME81 1
 10 2598 31 7 71 0 0 0 0 70 11 0 4 T7 0 0 4 20 1 72 72 13 13 94 0 7 0 73 0 0 74
 0 50 14 1598 0 75 76 0 0 --.00558580231297074 500000000000006e-19 .0018 -.70710
6781186548 511097805561125e-30 -.707106781186547 -.707106781186547 0 .7071067811
86548 31 15 1731 0 18 77 0 0 +0 2e-4 0 0 1 0 0 0 1 .004 29 16 1715 0 19 78 0 .00
0795989949685295 0 -.00392 19 17 28 0 7 74 0 79 V0 16 18 1729 0 ?80 0 81 15 0 0
 7 18 19 1713 0 82 0 83 16 ?7 17 82 0 84 85 86 19 87 88 0 89 -18 83 1630 0 90 19
 91 78 ?7 17 90 0 92 93 94 83 95 96 0 97 -18 91 1478 0 98 83 99 100 ?7 29 78 163
2 0 83 100 16 -.000795989949685297 0 .00392 29 100 1480 0 91 101 78 -.0055858023
1297074 500000000000006e-19 .0018 29 101 1463 0 99 102 100 -.00558580231297074 -
25e-5 .0018 18 99 1461 0 103 91 104 101 ?7 29 102 1455 0 104 105 101 -.005585802
31297074 5e-5 3e-4 18 104 1453 0 106 99 107 102 ?7 29 105 1452 0 107 108 102 -.0
0558580231297074 -25e-5 3e-4 18 107 1450 0 109 104 110 105 ?7 29 108 1430 0 110
 111 105 .00608580231297074 499999999999989e-19 -.0018 18 110 1428 0 112 107 113
 108 ?7 29 111 1413 0 113 114 108 .00608580231297074 -25e-5 -.0018 18 113 1411 0
 115 110 116 111 ?7 29 114 1405 0 116 117 111 .00608580231297074 499999999999987
e-19 -3e-4 18 116 1403 0 118 113 119 114 ?7 29 117 1402 0 119 120 114 .006085802
31297074 -25e-5 -3e-4 18 119 1400 0 121 116 122 117 ?7 29 120 787 0 122 123 117
 -.0039 .0015 6e-4 18 122 785 0 124 119 125 120 1e-8 7 29 123 495 0 125 126 120
 .0044 .0015 -6e-4 18 125 493 0 127 122 128 123 1e-8 7 29 126 268 0 128 129 123
 -.0035 .0015 -.0015 18 128 266 0 130 125 131 126 ?7 29 129 265 0 131 132 126 -.
0035 .0015 .0015 18 131 263 0 133 128 134 129 ?7 29 132 259 0 134 135 129 -.0035
 .0012 -.0015 18 134 257 0 136 131 137 132 ?7 29 135 249 0 137 138 132 .0035 .00
15 -.0015 18 137 247 0 139 134 140 135 ?7 29 138 245 0 140 141 135 .0035 .0015 .
0015 18 140 243 0 142 137 143 138 ?7 29 141 238 0 143 144 138 .0035 .0012 .0015
 18 143 236 0 145 140 146 141 ?7 29 144 70 0 147 148 141 .0035 0 -.0019364916731
0371 18 147 61 0 149 150 151 144 ?7 29 148 71 0 151 152 144 .0035 0 .00193649167
310371 18 151 62 0 153 147 154 148 ?7 29 152 72 0 154 155 148 -.0035 0 .00193649
167310371 18 154 63 0 156 151 157 152 ?7 29 155 73 0 157 158 152 -.0035 0 -.0019
3649167310371 18 157 64 0 159 154 160 155 ?7 29 158 27 0 146 161 155 .0035 .0024
 -.00193649167310371 18 146 25 0 162 143 163 158 ?7 29 161 24 0 163 164 158 .003
5 .0024 .00193649167310371 18 163 22 0 165 146 166 161 ?7 29 164 21 0 166 167 16
1 -.0035 .0024 .00193649167310371 18 166 19 0 168 163 150 164 ?7 29 167 18 0 150
 169 164 -.0035 .0024 -.00193649167310371 18 150 16 0 170 166 147 167 ?7 29 169
 430 0 160 171 167 .0035 .0012 -.0015 18 160 347 0 172 157 173 169 ?7 29 171 432
 0 173 174 169 -.0035 .0012 .0015 18 173 349 0 175 160 176 171 ?7 29 174 433 0 1
77 178 171 .0044 .0012 .0015 18 177 341 0 179 180 181 174 ?7 29 178 434 0 181 18
2 174 -.0039 .0012 .0015 18 181 348 0 183 177 184 178 ?7 29 182 435 0 184 185 17
8 -.0039 .0012 -.0015 18 184 336 0 186 181 187 182 ?7 29 185 436 0 187 188 182 .
0044 .0012 -.0015 18 187 345 0 189 184 190 185 ?7 29 188 437 0 176 191 185 .0044
 .0015 .0015 18 176 344 0 192 173 193 188 ?7 29 191 438 0 193 194 188 -.0039 .00
15 .0015 18 193 343 0 195 176 196 191 ?7 29 194 439 0 196 197 191 -.0039 .0015 -
.0015 18 196 342 0 198 193 180 194 ?7 29 197 440 0 180 199 194 .0044 .0015 -.001
5 18 180 338 0 200 196 177 197 ?7 29 199 688 0 190 201 197 .00578580231297074 49
9999999999988e-19 -.0015 18 190 580 0 202 187 203 199 1e-8 7 29 201 689 0 203 20
4 199 .00578580231297074 499999999999988e-19 -6e-4 18 203 595 0 205 190 206 201
 1e-8 7 29 204 691 0 206 207 201 .00578580231297074 -25e-5 -.0015 18 206 589 0 2
08 203 209 204 1e-8 7 29 207 692 0 209 210 204 .00558580231297074 49999999999998
8e-19 -.0015 18 209 581 0 211 206 212 207 ?7 29 210 693 0 212 213 207 .005585802
31297074 499999999999988e-19 -6e-4 18 212 596 0 214 209 215 210 ?7 29 213 694 0
 215 216 210 .00558580231297074 -25e-5 -6e-4 18 215 583 0 217 212 218 213 ?7 29
 216 695 0 218 219 213 .00558580231297074 -25e-5 -.0015 18 218 590 0 220 215 221
 216 ?7 29 219 696 0 221 222 216 .00535922536621158 .0001943454345648255 -.0015
 18 221 584 0 223 218 224 219 ?7 29 222 697 0 224 225 219 .00535922536621158 .00
0194345434564825 -6e-4 18 224 597 0 226 221 227 222 ?7 29 225 698 0 227 228 222
 .00508733303010058 675599560426162e-19 -6e-4 18 227 585 0 229 224 230 225 ?7 29
 228 699 0 230 231 225 .00508733303010058 675599560426162e-19 -.0015 18 230 591
 0 232 227 233 228 ?7 29 231 700 0 233 234 228 .00462657694675916 .0010556545654
35174 -.0015 18 233 592 0 235 230 236 231 ?7 29 234 701 0 236 237 231 .004626576
94675916 .001055654565435174 -6e-4 18 236 587 0 238 233 239 234 ?7 29 237 702 0
 239 240 234 .00489846928287016 .001182440043957382 -6e-4 18 239 598 0 241 236 2
42 237 ?7 29 240 703 0 242 243 237 .00489846928287016 .001182440043957382 -.0015
 18 242 586 0 244 239 245 240 ?7 29 243 705 0 245 246 240 .0044 .0012 -6e-4 18 2
45 593 0 247 242 248 243 1e-8 7 29 246 980 0 248 249 243 -.00528580231297074 500
000000000006e-19 .0015 18 248 872 0 250 245 251 246 1e-8 7 29 249 981 0 251 252
 246 -.00528580231297074 500000000000006e-19 6e-4 18 251 887 0 253 248 254 249 1
e-8 7 29 252 983 0 254 255 249 -.00528580231297074 -25e-5 .0015 18 254 881 0 256
 251 257 252 1e-8 7 29 255 984 0 257 258 252 -.00508580231297074 500000000000006
e-19 .0015 18 257 873 0 259 254 260 255 ?7 29 258 985 0 260 261 255 -.0050858023
1297074 500000000000006e-19 6e-4 18 260 888 0 262 257 263 258 ?7 29 261 986 0 26
3 264 258 -.00508580231297074 -25e-5 6e-4 18 263 875 0 265 260 266 261 ?7 29 264
 987 0 266 267 261 -.00508580231297074 -25e-5 .0015 18 266 882 0 268 263 269 264
 ?7 29 267 988 0 269 270 264 -.00485922536621158 .0001943454345648255 .0015 18 2
69 876 0 271 266 272 267 ?7 29 270 989 0 272 273 267 -.00485922536621158 .000194
3454345648255 6e-4 18 272 889 0 274 269 275 270 ?7 29 273 990 0 275 276 270 -.00
458733303010058 675599560426164e-19 6e-4 18 275 877 0 277 272 278 273 ?7 29 276
 991 0 278 279 273 -.00458733303010058 675599560426164e-19 .0015 18 278 883 0 28
0 275 281 276 ?7 29 279 992 0 281 282 276 -.00412657694675916 .00105565456543517
4 .0015 18 281 884 0 283 278 284 279 ?7 29 282 993 0 284 285 279 -.0041265769467
5916 .001055654565435174 6e-4 18 284 879 0 286 281 287 282 ?7 29 285 994 0 287 2
88 282 -.00439846928287016 .001182440043957384 6e-4 18 287 890 0 289 284 290 285
 ?7 29 288 995 0 290 291 285 -.00439846928287016 .001182440043957384 .0015 18 29
0 878 0 292 287 293 288 ?7 29 291 997 0 293 294 288 -.0039 .0012 6e-4 18 293 885
 0 295 290 296 291 1e-8 7 29 294 1180 0 296 297 291 -.00528580231297074 -25e-5 6
e-4 18 296 1112 0 298 293 299 294 1e-8 7 29 297 1187 0 299 300 294 -.00708580231
297074 500000000000006e-19 3e-4 18 299 1120 0 301 296 302 297 ?7 29 300 1188 0 3
02 303 297 -.00708580231297074 500000000000006e-19 .0018 18 302 1119 0 304 299 3
05 300 ?7 29 303 1189 0 305 306 300 -.00708580231297074 -25e-5 .0018 18 305 1118
 0 307 302 308 303 ?7 29 306 1190 0 308 309 303 -.00708580231297074 -25e-5 3e-4
 18 308 1115 0 310 305 311 306 ?7 29 309 1344 0 311 312 306 .00578580231297074 -
25e-5 -6e-4 18 311 1276 0 313 308 314 309 1e-8 7 29 312 1351 0 314 315 309 .0075
8580231297074 499999999999992e-19 -3e-4 18 314 1284 0 316 311 317 312 ?7 29 315
 1352 0 317 318 312 .00758580231297074 499999999999992e-19 -.0018 18 317 1283 0
 319 314 320 315 ?7 29 318 1353 0 320 321 315 .00758580231297074 -25e-5 -.0018 1
8 320 1282 0 322 317 323 318 ?7 29 321 1354 0 323 324 318 .00758580231297074 -25
e-5 -3e-4 18 323 1279 0 325 320 326 321 ?7 29 324 1707 0 326 327 321 .0007959899
49685295 0 .00392 18 326 1675 0 93 323 328 324 ?7 29 327 1708 0 328 329 324 -.00
0795989949685297 2e-4 .00392 18 328 1674 0 330 326 331 327 ?7 29 329 1709 0 331
 332 327 .000795989949685295 2e-4 .00392 18 331 1672 0 333 328 334 329 ?7 29 332
 1790 0 334 335 329 -.000795989949685297 0 -.00392 18 334 1758 0 85 331 336 332
 ?7 29 335 1791 0 336 337 332 .000795989949685295 2e-4 -.00392 18 336 1757 0 338
 334 339 335 ?7 29 337 1792 0 339 0 335 -.000795989949685297 2e-4 -.00392 18 339
 1755 0 340 336 0 337 ?7 17 340 0 84 86 85 339 341 342 0 343 -15 84 1768 0 85 34
4 0 17 86 0 84 82 340 336 343 345 0 87 -17 85 0 84 340 82 334 89 81 0 341 -17 34
1 0 346 159 80 334 340 342 0 347 +16 342 1747 0 ?341 88 345 348 0 0 7 17 343 0 3
49 338 338 339 86 345 0 80 +15 349 1761 0 343 350 0 17 338 0 349 343 343 336 80
 18 0 86 -16 345 1744 0 ?343 342 0 351 0 0 7 17 80 0 346 341 87 339 338 18 0 0 +
15 346 1726 0 352 353 0 17 87 0 346 80 352 336 82 88 0 0 +17 352 0 346 87 354 19
 355 356 0 0 +16 88 1743 0 ?87 357 342 358 0 0 7 16 357 1661 0 ?359 360 88 361 0
 0 7 30 255 358 1785 0 88 348 361 0 -.000795989949685296 1e-4 -.00392 0 -1 0 30
 348 1786 0 342 351 358 0 +-.000795989949685297 1e-4 -.00392 0 -1 0 31 361 1705
 0 357 358 362 0 +-643249059870655e-33 2e-4 .004 0 -1 0 0 0 -1 8e-4 30 362 1703
 0 360 361 363 0 +.000795989949685295 1e-4 .00392 0 -1 0 16 360 1664 0 ?364 96 3
57 362 0 0 7 30 363 1702 0 96 362 365 0 --.000795989949685297 1e-4 .00392 0 -1 0
 16 96 1660 0 ?95 366 360 363 0 0 7 30 365 1342 0 366 363 367 0 +.00758580231297
074 499999999999992e-19 -3e-4 0 -1 -180700362080918e-30 16 366 1263 0 ?368 369 9
6 365 0 0 7 30 367 1341 0 369 365 370 0 +.00758580231297074 -25e-5 -3e-4 0 36140
0724161835e-31 -1 16 369 1266 0 ?322 371 366 367 0 0 7 30 370 1340 0 371 367 372
 0 +.00758580231297074 499999999999992e-19 -.0018 0 1 0 16 371 1269 0 ?319 373 3
69 370 0 0 7 30 372 1339 0 373 370 374 0 +.00758580231297074 499999999999992e-19
 -3e-4 0 0 1 16 373 1272 0 ?316 375 371 372 0 0 7 30 374 1334 0 375 372 376 0 +.
00758580231297074 499999999999992e-19 -3e-4 -1 -1665334536937735e-31 0 16 375 12
38 0 ?377 378 373 374 0 0 7 30 376 1333 0 378 374 379 0 +.00758580231297074 4999
99999999992e-19 -.0018 -1 -1665334536937735e-31 0 16 378 1262 0 ?380 381 375 376
 0 0 7 30 379 1332 0 381 376 382 0 +.00758580231297074 -25e-5 -.0018 -1 -1665334
536937735e-31 0 16 381 1252 0 ?383 384 378 379 0 0 7 30 382 1331 0 384 379 385 0
 +.00758580231297074 -25e-5 -3e-4 -1 -1665334536937735e-31 0 16 384 1248 0 ?386
 387 381 382 0 0 7 30 385 1178 0 387 382 388 0 +-.00708580231297074 500000000000
006e-19 3e-4 0 -1 1807003620809175e-31 16 387 1099 0 ?389 390 384 385 0 0 7 30 3
88 1177 0 390 385 391 0 +-.00708580231297074 -25e-5 3e-4 0 0 1 16 390 1102 0 ?30
7 392 387 388 0 0 7 30 391 1176 0 392 388 393 0 +-.00708580231297074 50000000000
0006e-19 .0018 0 1 72280144832367e-29 16 392 1105 0 ?304 394 390 391 0 0 7 30 39
3 1175 0 394 391 395 0 +-.00708580231297074 500000000000006e-19 3e-4 0 0 -1 16 3
94 1108 0 ?301 396 392 393 0 0 7 30 395 1170 0 396 393 397 0 +-.0070858023129707
4 500000000000006e-19 3e-4 1 0 0 16 396 1074 0 ?398 399 394 395 0 0 7 30 397 116
9 0 399 395 400 0 +-.00708580231297074 500000000000006e-19 .0018 1 0 0 16 399 10
98 0 ?401 402 396 397 0 0 7 30 400 1168 0 402 397 403 0 +-.00708580231297074 -25
e-5 .0018 1 0 0 16 402 1088 0 ?404 405 399 400 0 0 7 30 403 1167 0 405 400 406 0
 +-.00708580231297074 -25e-5 3e-4 1 0 0 16 405 1084 0 ?407 408 402 403 0 0 7 30
 406 977 0 7 403 409 410 +-.0039 .0015 6e-4 0 -1 361400724161835e-30 30 409 975
 0 411 406 412 0 +-.00439846928287016 .001182440043957384 .0015 218360193699037e
-30 -1018230305580692e-31 -1 141 410 413 410 410 406 133 255 413 1003 0 414 415
 416 0 +406 -.0039 .0015 6e-4 -.0039 .0012 6e-4 0 3e-4 16 414 842 0 ?417 418 408
 413 0 0 7 31 415 1002 0 7 419 413 420 +-.0039 95e-5 6e-4 0 0 -1 -1 0 0 25e-5 13
3 416 1004 0 418 413 421 0 +421 -.0039 .0012 6e-4 -.0039 .0012 .0015 -9e-4 0 16
 418 836 0 ?422 411 414 416 0 0 7 30 421 1005 0 7 416 423 424 +-.0039 .0012 .001
5 0 0 1 133 423 1006 0 425 421 426 0 +426 -.00439846928287016 .00118244004395738
4 6e-4 -.0039 .0015 6e-4 .4363323129985805 1.570796326794895 141 424 416 424 424
 421 16 425 841 0 ?427 428 429 423 0 0 7 31 426 1007 0 7 423 430 431 +-.0039 95e
-5 6e-4 0 0 -1 -1 0 0 55e-5 133 430 1008 0 408 426 432 0 +432 -.0039 .0015 .0015
 -.0039 .0015 6e-4 0 9e-4 141 431 423 431 431 426 16 408 851 0 ?433 414 405 430
 0 0 7 30 432 1009 0 7 430 434 435 +-.0039 .0015 .0015 0 -24093381610789e-29 -1
 133 434 1192 0 436 432 437 0 +437 -.00508580231297074 -25e-5 6e-4 -.00528580231
297074 -25e-5 6e-4 0 2e-4 141 435 430 435 435 432 16 436 849 0 ?438 439 440 434
 0 0 7 30 437 1193 0 7 434 441 442 +-.00508580231297074 -25e-5 6e-4 -1 0 0 133 4
41 1194 0 443 437 444 0 +445 -.00528580231297074 500000000000006e-19 6e-4 -.0052
8580231297074 -25e-5 6e-4 0 3e-4 141 442 434 442 442 437 16 443 864 0 ?446 440 4
47 441 0 0 7 133 444 1199 0 439 441 448 0 +448 -.00508580231297074 5000000000000
06e-19 6e-4 -.00528580231297074 500000000000006e-19 6e-4 0 2e-4 30 445 955 0 7 4
49 450 451 +-.00528580231297074 500000000000006e-19 6e-4 0 -1 361400724161835e-3
0 30 449 957 0 7 452 445 453 +-.00528580231297074 500000000000006e-19 .0015 0 1
 0 30 450 685 0 7 445 454 455 +.0044 .0015 -6e-4 0 -1 -361400724161835e-30 141 4
51 441 451 451 445 30 454 683 0 456 450 457 0 +.00489846928287016 .0011824400439
57382 -.0015 -218360193699037e-30 -1018230305580692e-31 1 141 455 458 455 455 45
0 133 458 711 0 459 460 461 0 +450 .0044 .0015 -6e-4 .0044 .0012 -6e-4 0 3e-4 16
 459 550 0 ?462 463 464 458 0 0 7 31 460 710 0 7 465 458 466 +.0044 95e-5 -6e-4
 0 0 1 1 0 0 25e-5 133 461 712 0 463 458 467 0 +467 .0044 .0012 -6e-4 .0044 .001
2 -.0015 -9e-4 0 16 463 544 0 ?468 456 459 461 0 0 7 30 467 713 0 7 461 469 470
 +.0044 .0012 -.0015 0 0 -1 133 469 714 0 471 467 472 0 +472 .00489846928287016
 .001182440043957382 -6e-4 .0044 .0015 -6e-4 .436332312998579 1.570796326794895
 141 470 461 470 470 467 16 471 549 0 ?473 474 475 469 0 0 7 31 472 715 0 7 469
 476 477 +.0044 95e-5 -6e-4 0 0 1 1 0 0 55e-5 133 476 716 0 464 472 478 0 +478 .
0044 .0015 -.0015 .0044 .0015 -6e-4 0 9e-4 141 477 469 477 477 472 16 464 559 0
 ?479 459 480 476 0 0 7 30 478 717 0 7 476 481 482 +.0044 .0015 -.0015 0 -240933
81610789e-29 1 133 481 784 0 483 478 484 0 +485 -.0039 .0012 -.0015 -.0039 .0012
 6e-4 -.003 -9e-4 141 482 476 482 482 478 16 483 320 0 ?295 486 487 481 0 0 7 13
3 484 789 0 488 481 419 0 +489 -.0039 .0015 -.0015 -.0039 .0015 6e-4 -.003 -9e-4
 30 485 418 0 7 490 491 492 +-.0039 .0012 .0015 144560289664734e-30 0 1 30 490 4
19 0 487 493 485 0 +.0044 .0012 -.0015 -1 0 261253535538676e-31 30 491 417 0 494
 485 495 0 +.0044 .0012 .0015 1 0 -261253535538676e-31 141 492 481 492 492 485 1
6 494 284 0 ?496 497 486 491 486 486 7 30 495 416 0 498 491 499 0 +.0044 .0015 .
0015 0 -1 0 16 498 316 0 ?500 501 502 495 0 0 7 30 499 414 0 501 495 503 0 +-.00
39 .0015 -.0015 0 -1 0 16 501 323 0 ?504 505 498 499 0 0 7 30 503 412 0 505 499
 506 0 +-.0035 .0012 -.00193649167310371 0 0 1 16 505 311 0 ?507 508 501 503 0 0
 7 30 506 411 0 508 503 509 0 +-.0035 .0015 -.00193649167310371 0 0 1 16 508 330
 0 ?133 510 505 506 0 0 7 30 509 410 0 510 506 511 0 +-.0035 .0024 .0015 0 1 0 1
6 510 287 0 ?512 513 508 509 0 0 7 30 511 409 0 513 509 514 0 +-.0035 .0024 -.00
15 0 -1 0 16 513 275 0 ?515 516 510 511 0 0 7 31 514 215 0 517 511 518 0 +0 .002
7 0 0 1 0 0 0 1 .002 16 517 195 0 ?519 520 516 514 0 0 7 31 518 214 0 516 514 52
1 0 +0 .0024 0 0 1 0 0 0 1 .002 16 516 192 0 ?522 517 513 518 0 0 7 31 521 161 0
 523 518 524 0 +0 -25e-5 0 0 1 0 0 0 1 .00275 16 523 138 0 ?525 526 520 521 0 0
 7 31 524 160 0 520 521 527 0 +0 0 0 0 1 0 0 0 1 .00275 16 520 141 0 ?528 523 51
7 524 0 0 7 31 527 5 0 529 524 530 0 +0 .0024 0 0 1 0 0 0 1 .004 16 529 4 0 ?531
 532 533 527 0 0 7 30 530 8 0 532 527 534 0 +-.0035 .0024 -.00193649167310371 0
 0 1 16 532 7 0 ?168 535 529 530 0 0 7 31 534 11 0 535 530 536 0 +0 .0024 0 0 1
 0 0 0 1 .004 16 535 10 0 ?165 537 532 534 0 0 7 30 536 14 0 537 534 538 0 +.003
5 .0024 -.00193649167310371 0 0 -1 16 537 13 0 ?162 539 535 536 0 0 7 31 538 69
 0 356 536 540 0 +0 0 0 0 1 0 0 0 1 .004 16 356 57 0 ?352 541 526 538 526 526 7
 30 540 68 0 541 538 542 0 +-.0035 0 -.00193649167310371 0 0 1 16 541 53 0 ?156
 543 356 540 0 0 7 31 542 67 0 544 540 545 0 +0 0 0 0 1 0 0 0 1 .004 16 544 49 0
 ?546 533 543 542 543 543 7 30 545 66 0 533 542 547 0 +.0035 0 -.001936491673103
71 0 0 -1 16 533 45 0 ?149 529 544 545 0 0 7 30 547 86 0 539 545 548 0 +.0035 .0
024 -.00193649167310371 0 -1 0 16 539 74 0 ?354 549 537 547 0 0 7 30 548 87 0 54
9 547 550 0 +.0035 .0024 .00193649167310371 0 -1 0 16 549 75 0 ?551 552 539 548
 0 0 7 30 550 88 0 552 548 553 0 +-.0035 .0024 .00193649167310371 0 -1 0 16 552
 76 0 ?554 555 549 550 0 0 7 30 553 89 0 555 550 556 0 +-.0035 .0024 -.001936491
67310371 0 -1 0 16 555 77 0 ?557 558 552 553 0 0 7 30 556 242 0 558 553 559 0 +.
0035 .0012 -.00193649167310371 0 0 -1 16 558 240 0 ?560 561 555 556 0 0 7 30 559
 246 0 561 556 562 0 +.0035 .0024 .0015 0 -1 0 16 561 244 0 ?563 564 558 559 0 0
 7 30 562 250 0 564 559 565 0 +.0035 .0024 -.0015 0 1 0 16 564 248 0 ?566 567 56
1 562 0 0 7 30 565 253 0 567 562 568 0 +.0035 .0015 -.00193649167310371 0 0 -1 1
6 567 251 0 ?139 569 564 565 0 0 7 133 568 492 0 570 565 571 0 +493 .0044 .0012
 .0015 .0044 .0012 -6e-4 0 .0021 16 570 313 0 ?247 572 573 568 0 0 7 133 571 497
 0 497 568 465 0 +574 .0044 .0015 .0015 .0044 .0015 -6e-4 0 .0021 30 493 420 0 7
 575 490 576 +.0044 .0012 .0015 0 0 -1 30 575 421 0 502 489 493 0 +.0044 .0015 .
0015 1 0 -261253535538676e-31 141 576 568 576 576 493 16 502 299 0 ?577 498 578
 575 578 578 7 30 489 422 0 7 579 575 580 +-.0039 .0015 .0015 144560289664734e-3
0 0 1 30 579 423 0 581 574 489 0 +.0044 .0015 -.0015 -1 0 261253535538676e-31 14
1 580 484 580 580 489 16 581 308 0 ?582 488 583 579 583 583 7 30 574 424 0 7 584
 579 585 +.0044 .0015 .0015 0 0 -1 30 584 663 0 7 586 574 587 +.0057858023129707
4 499999999999988e-19 -6e-4 1665334536937735e-31 -1 -361400724161835e-30 141 585
 571 585 585 574 30 586 665 0 7 588 584 589 +.00578580231297074 499999999999988e
-19 -.0015 -1665334536937735e-31 1 0 141 587 590 587 587 584 133 590 1358 0 591
 592 593 0 +584 .00578580231297074 499999999999988e-19 -6e-4 .00578580231297074
 -25e-5 -6e-4 0 3e-4 16 591 572 0 ?594 595 596 590 0 0 7 30 592 1357 0 7 597 590
 598 +.00558580231297074 -25e-5 -6e-4 1 -1355252715606882e-31 0 133 593 1363 0 5
99 590 600 0 +600 .00558580231297074 499999999999988e-19 -6e-4 .0057858023129707
4 499999999999988e-19 -6e-4 0 2e-4 16 599 511 0 ?601 573 602 593 0 0 7 30 600 13
64 0 7 593 603 604 +.00558580231297074 499999999999988e-19 -6e-4 1 -135525271560
6882e-31 0 133 603 1367 0 596 600 605 0 +586 .00578580231297074 -25e-5 -.0015 .0
0578580231297074 499999999999988e-19 -.0015 -3e-4 0 141 604 593 604 604 600 16 5
96 564 0 ?606 591 607 603 0 0 7 133 605 1368 0 573 603 608 0 +608 .0055858023129
7074 499999999999988e-19 -.0015 .00578580231297074 499999999999988e-19 -.0015 0
 2e-4 16 573 542 0 ?609 570 599 605 0 0 7 30 608 1369 0 7 605 610 611 +.00558580
231297074 499999999999988e-19 -.0015 1 -1355252715606882e-31 0 133 610 1370 0 59
5 608 612 0 +612 .00558580231297074 -25e-5 -.0015 .00578580231297074 -25e-5 -.00
15 0 2e-4 141 611 605 611 611 608 16 595 515 0 ?613 602 591 610 0 0 7 30 612 137
1 0 7 610 614 615 +.00558580231297074 -25e-5 -.0015 1 -1355252715606882e-31 0 30
 614 1408 0 569 612 616 0 +.00608580231297074 499999999999992e-19 -3e-4 0 -1 -18
0700362080918e-30 141 615 610 615 615 612 16 569 1406 0 ?617 618 567 614 0 0 7 1
33 616 1416 0 618 614 619 0 +619 .00578580231297074 -25e-5 -.0015 .0060858023129
7074 -25e-5 -.0018 -.0001414213562373094 -.000565685424949237 16 618 1414 0 ?115
 620 569 616 0 0 7 30 619 1417 0 7 616 621 622 -.00568580231297074 -25e-5 -.0014
 -.707106781186548 958308385427111e-31 .707106781186548 133 621 1423 0 620 619 6
23 0 +623 .00608580231297074 -25e-5 -3e-4 .00578580231297074 -25e-5 -6e-4 .00120
208152801713 .000777817459305202 141 622 616 622 622 619 16 620 1421 0 ?313 624
 618 621 0 0 7 30 623 1424 0 7 621 625 626 -.00523580231297074 -25e-5 -.00115 .7
07106781186548 -958308385427111e-31 .707106781186547 133 625 1433 0 624 623 627
 0 +627 .00608580231297074 499999999999989e-19 -.0018 .00578580231297074 4999999
99999988e-19 -.0015 .000565685424949237 .0001414213562373094 141 626 621 626 626
 623 16 624 1431 0 ?202 628 620 625 0 0 7 30 627 1434 0 7 625 629 630 -.00568580
231297074 499999999999988e-19 -.0014 .707106781186548 745350966443305e-31 -.7071
06781186548 133 629 1440 0 628 627 631 0 +631 .00578580231297074 499999999999987
e-19 -6e-4 .00608580231297074 499999999999987e-19 -3e-4 -.000777817459305202 -.0
0120208152801713 141 630 625 630 630 627 16 628 1438 0 ?118 632 624 629 0 0 7 30
 631 1441 0 7 629 633 634 -.00523580231297074 499999999999988e-19 -.00115 -.7071
06781186548 2661967737297525e-31 -.707106781186547 30 633 1447 0 632 631 635 0 +
.00608580231297074 499999999999992e-19 -.0018 0 1 0 141 634 629 634 634 631 16 6
32 1445 0 ?636 637 628 633 0 0 7 30 635 1458 0 637 633 638 0 +-.0055858023129707
4 500000000000006e-19 3e-4 0 -1 1807003620809175e-31 16 637 1456 0 ?639 640 632
 635 0 0 7 133 638 1466 0 640 635 641 0 +641 -.00528580231297074 -25e-5 .0015 -.
00558580231297074 -25e-5 .0018 -.00014142135623731 -.000565685424949237 16 640 1
464 0 ?103 642 637 638 0 0 7 30 641 1467 0 7 638 643 644 --.00518580231297074 -2
5e-5 .0014 .707106781186547 0 -.707106781186548 133 643 1473 0 642 641 645 0 +64
5 -.00558580231297074 -25e-5 3e-4 -.00528580231297074 -25e-5 6e-4 .0012020815280
1713 .000777817459305202 141 644 638 644 644 641 16 642 1471 0 ?298 646 640 643
 0 0 7 30 645 1474 0 7 643 647 648 --.00473580231297074 -25e-5 .00115 -.70710678
1186548 0 -.707106781186548 133 647 1483 0 646 645 649 0 +649 -.0055858023129707
4 500000000000006e-19 .0018 -.00528580231297074 500000000000006e-19 .0015 .00056
5685424949237 .0001414213562373088 141 648 643 648 648 645 16 646 1481 0 ?250 65
0 642 647 0 0 7 30 649 1484 0 7 647 651 652 --.00518580231297074 5e-5 .0014 -.70
7106781186547 1703659351870415e-31 .707106781186548 133 651 1490 0 650 649 653 0
 +653 -.00528580231297074 5e-5 6e-4 -.00558580231297074 5e-5 3e-4 -.000777817459
305202 -.00120208152801713 141 652 647 652 652 649 16 650 1488 0 ?106 654 646 65
1 0 0 7 30 653 1491 0 7 651 655 656 --.00473580231297074 5e-5 .00115 .7071067811
86548 1703659351870415e-31 .707106781186548 30 655 1497 0 654 653 657 0 +-.00558
580231297074 500000000000006e-19 .0018 0 1 72280144832367e-29 141 656 651 656 65
6 653 16 654 1495 0 ?658 659 650 655 0 0 7 31 657 1638 0 659 655 660 0 +-6432490
59870655e-33 0 .004 0 1 0 0 0 1 8e-4 16 659 1636 0 ?97 661 654 657 0 0 7 31 660
 1648 0 661 657 77 0 +0 2e-4 0 0 -1 0 0 0 -1 .004 16 661 1646 0 ?330 81 659 660
 0 0 7 31 77 1721 0 81 660 15 0 +-734788079488412e-33 0 -.004 0 1 0 0 0 1 8e-4 1
6 81 1719 0 ?89 18 661 77 0 0 7 17 89 0 662 355 347 19 85 81 0 352 +15 662 44 0
 347 663 0 17 355 0 662 664 89 147 352 356 0 0 -17 347 0 662 89 665 334 159 526
 0 0 -17 665 0 662 347 666 157 156 541 0 557 -17 159 0 346 667 341 157 347 526 0
 665 +16 526 1717 0 ?159 356 523 538 356 356 7 17 667 0 346 668 159 150 557 555
 0 0 -17 668 0 346 354 667 146 531 529 0 0 -17 557 0 669 156 170 157 667 555 0 0
 +15 669 82 0 156 670 0 17 156 0 669 671 557 154 665 541 0 554 +17 170 0 669 557
 671 150 168 532 0 531 -17 671 0 669 170 156 166 554 552 0 672 -17 168 0 673 165
 531 166 170 532 0 671 +17 531 0 673 168 162 150 668 529 0 667 +15 673 3 0 531 6
74 675 17 162 0 673 531 165 146 676 537 0 677 +17 165 0 673 162 168 163 672 535
 0 678 +17 676 0 679 551 677 163 162 537 0 0 -17 677 0 679 676 149 146 354 539 0
 668 -15 679 78 0 149 680 0 17 149 0 679 677 551 147 664 533 0 354 +17 354 0 346
 352 668 147 677 539 0 355 +17 551 0 679 149 676 151 678 549 0 664 +17 664 0 662
 681 355 151 149 533 0 0 -17 681 0 662 97 664 326 153 543 0 0 -17 97 0 662 666 6
81 83 93 659 0 546 +17 153 0 682 678 364 151 681 543 0 551 +16 543 1634 0 ?153 5
44 541 542 544 544 7 15 682 1643 0 546 683 0 17 678 0 682 672 153 163 551 549 0
 676 -17 364 0 682 153 684 326 333 360 0 681 +17 684 0 682 364 95 331 330 661 0
 0 -17 333 0 92 94 93 331 364 360 0 359 -15 92 1685 0 93 685 0 17 94 0 92 90 333
 328 359 357 0 95 -17 93 0 92 333 90 326 97 659 0 364 -17 359 0 686 330 330 331
 94 357 0 684 +15 686 1678 0 330 687 0 17 330 0 686 359 359 328 684 661 0 94 +14
 687 1676 688 ?685 75 686 13 689 +0 0 685 75 79 81 1 688 2547 48 687 690 0 691 6
92 693 14 685 1682 692 ?350 687 92 13 694 -0 0 350 687 79 14 75 1586 695 ?687 69
6 697 13 14 +0 0 687 696 79 50 689 1700 0 687 698 694 0 +-643249059870655e-33 2e
-4 .004 0 -1 0 0 0 -1 13 79 29 0 0 0 0 0 0 17 73 14 73 793 699 ?700 0 701 13 702
 -0 0 700 0 79 81 1 699 2550 48 73 703 0 695 704 705 14 700 501 704 ?674 73 706
 13 707 -0 0 674 73 79 15 701 791 0 124 73 0 50 702 405 0 73 708 709 0 +-.0039 .
0015 .0015 1 0 -144560289664734e-30 -144560289664734e-30 0 -1 50 708 406 0 710 7
11 702 0 +.0044 .0015 .0015 -261253535538676e-31 0 -1 -1 0 261253535538676e-31 5
0 709 404 0 712 702 707 0 +.0044 .0015 -.0015 261253535538676e-31 0 1 1 0 -26125
3535538676e-31 14 712 351 713 ?710 714 715 13 709 -714 714 710 714 79 50 707 403
 0 700 709 716 0 +.0044 .0015 .0015 -1 0 0 0 0 1 50 716 213 0 717 707 718 0 +0 .
0027 0 0 1 0 0 0 1 14 717 203 719 ?720 721 722 13 716 +0 0 720 721 79 51 255 718
 211 0 721 716 723 0 -0 .0027 0 0 -1 0 .002 0 0 -1 14 721 198 724 ?717 725 726 1
3 718 -0 0 717 725 79 50 723 159 0 725 718 727 0 +0 -25e-5 0 0 1 0 0 0 1 14 725
 149 728 ?721 729 730 13 723 -0 0 721 729 79 51 727 157 0 729 723 731 0 +0 -25e-
5 0 0 1 0 .00275 0 0 1 14 729 144 732 ?725 663 733 13 727 +0 0 725 663 79 50 731
 2 0 674 727 734 0 +0 .0024 0 0 1 0 0 0 1 14 674 188 735 ?353 700 673 13 731 +0
 0 353 700 79 50 734 65 0 663 731 736 0 +0 0 0 0 1 0 0 0 1 14 663 43 737 ?729 68
0 738 13 734 -0 0 729 680 79 50 736 90 0 680 734 739 0 +.0035 .0024 -.0019364916
7310371 -1 0 0 0 0 1 14 680 79 740 ?663 683 741 13 736 -0 0 663 683 79 51 739 91
 0 683 736 742 0 -0 .0024 0 0 -1 0 .004 0 0 -1 14 683 81 743 ?680 670 682 13 739
 -0 0 680 670 79 50 742 92 0 670 739 744 0 +-.0035 .0024 -.00193649167310371 1 0
 0 0 0 -1 14 670 83 691 ?683 353 745 13 742 -0 0 683 353 79 51 744 93 0 353 742
 746 0 -0 .0024 0 0 -1 0 .004 0 0 -1 14 353 85 747 ?670 674 346 13 744 -0 0 670
 674 79 50 746 1535 0 748 744 749 0 -.00608580231297074 499999999999992e-19 -3e-
4 .707106781186547 1277744513902816e-31 -.707106781186548 -.707106781186548 0 -.
707106781186547 14 748 1523 750 ?751 752 753 13 746 +0 0 751 752 79 50 749 1556
 0 751 746 76 0 -.00608580231297074 499999999999992e-19 -.0018 .707106781186548
 0 .707106781186548 .707106781186548 0 -.707106781186548 14 751 1544 754 ?696 74
8 755 13 749 +0 0 696 748 79 50 76 1577 0 696 749 14 0 --.00558580231297074 5000
00000000006e-19 3e-4 -.707106781186548 1277744513902812e-31 .707106781186548 .70
7106781186548 0 .707106781186548 14 696 1565 756 ?75 751 757 13 76 +0 0 75 751 7
9 81 1 756 2564 48 696 758 0 754 759 760 15 757 1566 0 761 696 0 17 761 0 757 44
6 762 251 106 650 0 0 -17 446 0 757 109 761 296 253 443 0 0 +17 762 0 757 761 10
9 104 639 637 0 0 -17 106 0 763 764 765 104 761 650 0 398 +15 763 894 0 765 766
 0 17 764 0 763 767 106 299 398 396 0 768 -17 765 0 763 106 769 251 262 439 0 76
1 +17 398 0 770 639 768 104 764 396 0 762 +15 770 1132 0 398 771 0 17 639 0 770
 772 398 107 762 637 0 407 +17 768 0 770 398 772 299 389 387 0 0 -17 772 0 770 7
68 639 308 407 405 0 0 -17 389 0 773 307 301 308 768 387 0 772 +15 773 1147 0 38
9 774 0 17 307 0 773 304 389 305 310 390 0 775 +17 301 0 773 389 304 299 767 394
 0 764 +17 304 0 773 301 307 302 776 392 0 777 +17 767 0 763 401 764 302 301 394
 0 0 -17 401 0 763 250 767 91 777 399 0 0 +17 250 0 763 259 401 248 98 646 0 778
 +17 777 0 779 776 658 302 401 399 0 767 -15 779 1140 0 404 780 0 17 776 0 779 4
04 777 305 304 392 0 0 -17 658 0 779 777 404 91 781 654 0 401 +17 404 0 779 658
 776 99 775 402 0 781 +17 781 0 697 782 98 99 658 654 0 0 -15 697 1587 0 782 75
 0 17 782 0 697 783 781 254 103 640 0 0 -17 98 0 697 781 783 91 250 646 0 658 -1
7 783 0 697 98 782 248 256 447 0 0 +17 256 0 784 268 778 254 783 447 0 785 -16 4
47 856 0 ?783 443 786 787 0 0 7 16 786 833 0 ?788 447 789 452 0 0 7 133 787 1203
 0 447 448 790 0 +449 -.00528580231297074 -25e-5 .0015 -.00528580231297074 50000
0000000006e-19 .0015 -3e-4 0 30 448 1200 0 7 444 787 791 +-.00508580231297074 50
0000000000006e-19 6e-4 -1 0 0 133 790 1204 0 480 787 792 0 +792 -.00508580231297
074 500000000000006e-19 .0015 -.00528580231297074 500000000000006e-19 .0015 0 2e
-4 16 480 834 0 ?778 464 439 790 0 0 7 30 792 1205 0 7 790 793 794 +-.0050858023
1297074 500000000000006e-19 .0015 -1 0 0 133 793 1206 0 440 792 795 0 +795 -.005
08580231297074 -25e-5 .0015 -.00528580231297074 -25e-5 .0015 0 2e-4 141 794 790
 794 794 792 16 440 807 0 ?785 436 443 793 0 0 7 30 795 1207 0 7 793 597 796 +-.
00508580231297074 -25e-5 .0015 -1 0 0 133 597 1356 0 602 795 592 0 +592 .0055858
0231297074 -25e-5 -6e-4 .00578580231297074 -25e-5 -6e-4 0 2e-4 141 796 793 796 7
96 795 16 602 557 0 ?797 599 595 597 0 0 7 17 797 0 798 205 799 311 217 602 0 59
4 +15 798 632 0 473 800 0 17 205 0 798 214 797 203 594 591 0 601 -17 799 0 798 7
97 801 215 229 802 0 0 +17 217 0 803 804 313 215 797 602 0 805 -17 594 0 753 121
 806 311 205 591 0 0 +15 753 1524 0 806 748 0 17 121 0 753 807 594 119 313 620 0
 617 -17 806 0 753 594 807 203 118 628 0 0 -17 807 0 753 806 121 116 617 569 0 0
 -17 118 0 808 809 601 116 806 628 0 377 +15 808 602 0 601 810 0 17 809 0 808 81
1 118 314 377 375 0 812 -17 601 0 808 118 813 203 214 599 0 806 +17 377 0 814 61
7 812 116 809 375 0 807 +15 814 1296 0 377 815 0 17 617 0 814 816 377 119 807 56
9 0 386 +17 812 0 814 377 816 314 368 366 0 0 -17 816 0 814 812 617 323 386 384
 0 0 -17 368 0 817 322 316 323 812 366 0 816 +15 817 1311 0 368 752 0 17 322 0 8
17 319 368 320 325 369 0 818 +17 316 0 817 368 319 314 811 373 0 809 +17 319 0 8
17 316 322 317 819 371 0 820 +17 811 0 808 380 809 317 316 373 0 0 -17 380 0 808
 202 811 110 820 378 0 0 +17 202 0 808 211 380 190 112 624 0 609 +17 820 0 821 8
19 636 317 380 378 0 811 -15 821 1304 0 383 822 0 17 819 0 821 383 820 320 319 3
71 0 0 -17 636 0 821 820 383 110 823 632 0 380 +17 383 0 821 636 819 113 818 381
 0 823 +17 823 0 755 824 112 113 636 632 0 0 -15 755 1545 0 824 751 0 17 824 0 7
55 606 823 206 115 618 0 0 -17 112 0 755 823 606 110 202 624 0 636 -17 606 0 755
 112 824 190 208 596 0 0 +17 208 0 825 220 609 206 606 596 0 613 -15 825 358 0 8
26 714 0 17 220 0 825 232 208 218 613 595 0 804 -17 609 0 825 208 827 190 211 57
3 0 606 +17 613 0 803 115 804 206 220 595 0 824 +15 803 605 0 386 828 0 17 115 0
 803 818 613 113 824 618 0 383 +17 804 0 803 613 217 218 805 829 0 830 +17 805 0
 831 229 830 215 804 829 0 799 -16 829 512 0 ?804 832 833 834 0 0 7 17 830 0 831
 805 835 218 232 836 0 0 +15 831 611 0 835 837 0 17 835 0 831 830 229 230 838 83
9 0 840 +17 232 0 825 235 220 230 830 836 0 835 -16 836 525 0 ?830 802 832 841 0
 0 7 16 802 556 0 ?799 842 836 843 0 0 7 16 832 508 0 ?813 836 829 844 0 0 7 31
 841 669 0 836 844 843 0 +.00558580231297074 3e-4 -.0015 0 0 1 1 0 0 55e-5 30 84
4 670 0 832 834 841 0 +.00558580231297074 499999999999988e-19 -.0015 49303806576
3132e-46 -24093381610789e-29 1 31 843 668 0 802 841 845 0 +.00558580231297074 3e
-4 -6e-4 0 0 1 1 0 0 55e-5 31 845 667 0 842 843 588 0 +.00558580231297074 3e-4 -
6e-4 0 0 1 1 0 0 25e-5 16 842 520 0 ?846 607 802 845 0 0 7 31 588 666 0 607 845
 586 0 +.00558580231297074 3e-4 -.0015 0 0 1 1 0 0 25e-5 16 607 541 0 ?827 596 8
42 588 0 0 7 17 827 0 825 609 847 209 223 607 0 0 +17 847 0 825 827 848 221 244
 833 0 0 +17 223 0 849 850 851 221 827 607 0 852 -15 849 608 0 850 853 0 17 850
 0 849 846 223 224 852 854 0 855 +17 851 0 849 223 846 209 813 832 0 827 -17 852
 0 856 244 855 221 850 854 0 847 -15 856 614 0 857 858 0 17 244 0 856 857 852 24
2 847 833 0 848 -17 855 0 856 852 857 224 241 859 0 0 +16 854 516 0 ?850 860 839
 861 0 0 7 16 860 533 0 ?840 862 854 863 0 0 7 16 839 521 0 ?835 854 864 865 0 0
 7 30 861 676 0 854 865 863 0 +.00535922536621158 .0001943454345648255 -.0015 -2
18360193699037e-30 -1018230305580692e-31 1 30 865 677 0 839 866 861 0 +.00508733
303010058 675599560426162e-19 -.0015 0 0 -1 30 863 675 0 860 861 867 0 +.0046265
7694675916 .001055654565435174 -.0015 .4226182617406975 -.906307787036651 0 30 8
67 674 0 862 863 868 0 +.00462657694675916 .001055654565435174 -6e-4 .4226182617
406975 -.906307787036651 0 16 862 555 0 ?801 859 860 867 0 0 7 30 868 673 0 859
 867 869 0 +.00489846928287016 .001182440043957382 -6e-4 .4226182617406975 -.906
307787036651 0 16 859 529 0 ?855 833 862 868 0 0 7 30 869 672 0 833 868 834 0 +.
00489846928287016 .001182440043957382 -.0015 .4226182617406975 -.906307787036651
 0 16 833 540 0 ?847 829 859 869 0 0 7 30 834 671 0 829 869 844 0 +.005585802312
97074 -25e-5 -.0015 0 0 -1 17 801 0 798 799 870 227 238 862 0 0 +17 870 0 798 80
1 462 236 871 474 0 872 -17 238 0 873 874 838 236 801 862 0 870 -15 873 617 0 87
4 875 0 17 874 0 873 840 238 233 872 876 0 877 +17 838 0 873 238 840 227 835 839
 0 801 -17 840 0 873 838 874 230 235 860 0 0 +17 235 0 825 878 232 233 840 860 0
 874 -17 878 0 825 826 235 187 877 864 0 468 +17 826 0 825 566 878 160 189 487 0
 0 +17 877 0 879 872 468 233 878 864 0 0 -16 864 534 0 ?878 839 474 866 0 0 7 17
 468 0 879 877 871 187 880 463 0 0 +15 879 626 0 871 881 0 17 871 0 879 468 872
 245 870 474 0 462 +17 880 0 882 883 189 245 468 463 0 871 -15 882 378 0 884 720
 0 17 883 0 882 884 880 177 247 570 0 0 -17 189 0 882 880 560 187 826 487 0 878
 -17 560 0 882 189 884 160 145 558 0 826 +16 487 279 0 ?826 483 572 490 572 572
 7 16 572 276 0 ?186 487 570 490 487 487 7 17 186 0 715 885 515 184 886 572 0 50
4 +15 715 354 0 887 712 0 17 885 0 715 887 186 196 504 501 0 888 -17 515 0 715 1
86 887 134 130 513 0 886 +17 886 0 889 507 890 134 186 572 0 0 -17 504 0 701 295
 888 184 885 501 0 890 +17 295 0 701 124 504 293 890 483 0 891 +17 888 0 701 504
 124 196 892 488 0 0 -17 890 0 889 886 891 184 295 483 0 0 -15 889 375 0 886 893
 0 17 891 0 889 890 183 293 422 418 0 894 -17 183 0 889 891 507 181 496 494 0 89
5 -17 422 0 896 897 894 181 891 418 0 0 +17 894 0 896 422 898 293 899 428 0 417
 +15 896 918 0 894 900 0 17 898 0 896 894 897 284 901 902 0 0 -17 899 0 903 904
 417 284 894 428 0 898 -16 428 835 0 ?894 905 425 419 0 0 7 17 417 0 903 899 427
 293 124 414 0 0 +15 903 924 0 427 906 0 17 427 0 903 417 289 122 907 425 0 433
 +17 124 0 701 888 295 122 417 414 0 892 -17 892 0 908 195 198 122 888 488 0 427
 +15 908 369 0 909 910 0 17 195 0 908 577 892 193 433 408 0 911 -17 198 0 908 89
2 909 196 887 583 0 885 +16 488 296 0 ?892 578 581 484 0 0 7 16 578 302 0 ?192 5
02 488 575 502 502 7 17 192 0 912 913 914 176 915 578 0 916 +15 912 372 0 914 91
7 0 17 913 0 912 200 192 125 918 497 0 473 +17 914 0 912 192 582 140 139 567 0 9
15 -17 915 0 919 563 916 140 192 578 0 0 -17 916 0 919 915 179 176 500 498 0 918
 -15 919 366 0 915 920 0 17 179 0 919 916 563 177 884 486 0 500 +17 500 0 706 24
7 918 177 916 498 0 883 +17 918 0 706 500 127 176 913 497 0 0 -15 706 499 0 127
 700 0 17 127 0 706 918 247 125 462 459 0 913 -16 497 305 0 ?913 583 494 571 0 0
 7 16 583 293 0 ?198 581 497 579 581 581 7 17 247 0 706 127 500 245 883 570 0 88
0 +17 462 0 798 870 473 245 127 459 0 0 +17 473 0 798 462 241 125 921 471 0 479
 +17 241 0 798 473 226 239 855 859 0 857 -17 921 0 922 923 479 239 473 471 0 0 -
17 479 0 922 921 924 125 200 464 0 0 +15 922 635 0 923 925 0 17 924 0 922 479 92
3 180 848 475 0 0 +17 200 0 912 582 913 180 479 464 0 926 -17 582 0 912 914 200
 137 926 581 0 0 +17 926 0 825 848 566 180 582 581 0 924 -17 848 0 825 847 926 2
42 924 475 0 923 -17 566 0 825 926 826 137 172 564 0 582 +17 172 0 741 145 139 1
60 566 564 0 560 -15 741 237 0 142 680 679 17 145 0 741 142 172 143 560 558 0 56
3 -17 139 0 741 172 142 137 914 567 0 566 +17 142 0 741 139 145 140 563 561 0 91
4 -17 563 0 919 179 915 143 142 561 0 884 +17 884 0 882 560 883 143 179 486 0 0
 -16 486 290 0 ?179 494 483 491 494 494 7 16 475 558 0 ?924 471 876 927 0 0 7 17
 923 0 922 924 921 242 857 456 0 0 -17 857 0 856 855 244 239 923 456 0 921 +16 4
56 526 0 ?857 876 463 454 0 0 7 16 876 530 0 ?874 475 456 457 0 0 7 30 457 682 0
 876 454 927 0 +.00462657694675916 .001055654565435174 -.0015 0 0 -1 31 927 681
 0 475 457 866 0 +.0044 95e-5 -.0015 0 0 1 1 0 0 55e-5 31 866 678 0 864 927 865
 0 +.0044 95e-5 -.0015 0 0 1 1 0 0 25e-5 14 925 633 928 ?766 800 922 13 929 -0 0
 766 800 79 81 1 928 2584 48 925 930 0 931 932 933 14 766 892 934 ?935 925 763 1
3 936 +0 0 935 925 79 14 800 627 932 ?925 881 798 13 937 -0 0 925 881 79 51 929
 654 0 925 936 937 0 -.0044 95e-5 -.00105 0 0 1 55e-5 1 0 0 50 936 938 0 766 938
 929 0 +-.00508580231297074 500000000000006e-19 .0015 0 1 -24093381610789e-29 0
 24093381610789e-29 1 50 937 653 0 800 929 939 0 +.00489846928287016 .0011824400
43957382 -6e-4 0 0 -1 -1 0 0 51 939 652 0 881 937 940 0 +.0044 95e-5 -.00105 0 0
 1 25e-5 1 0 0 14 881 624 941 ?800 875 879 13 939 -0 0 800 875 79 50 940 651 0 8
75 939 942 0 +.00462657694675916 .001055654565435174 -.0015 -.906307787036651 -.
4226182617406975 0 .4226182617406975 -.906307787036651 0 14 875 615 943 ?881 858
 873 13 940 +0 0 881 858 79 50 942 650 0 858 940 944 0 +.00489846928287016 .0011
82440043957382 -.0015 .906307787036651 .4226182617406975 24093381610789e-29 -.42
26182617406975 .906307787036651 0 14 858 612 945 ?875 837 856 13 942 +0 0 875 83
7 79 51 944 649 0 837 942 946 0 +.00558580231297074 3e-4 -.00105 0 0 1 55e-5 1 0
 0 14 837 609 947 ?858 853 831 13 944 +0 0 858 853 79 51 946 648 0 853 944 948 0
 -.00558580231297074 3e-4 -.00105 0 0 1 25e-5 1 0 0 14 853 606 949 ?837 828 849
 13 946 +0 0 837 828 79 50 948 647 0 828 946 950 0 +.00558580231297074 -25e-5 -.
0015 -1355252715606882e-31 -1 0 1 -1355252715606882e-31 0 14 828 603 951 ?853 81
0 803 13 948 +0 0 853 810 79 50 950 646 0 810 948 952 0 +.00558580231297074 4999
99999999988e-19 -.0015 1355252715606882e-31 1 24093381610789e-29 0 -240933816107
89e-29 1 14 810 600 953 ?828 893 808 13 950 +0 0 828 893 79 50 952 408 0 910 950
 711 0 +.0044 .0015 -.0015 0 1 0 0 0 1 14 910 367 954 ?893 710 908 13 952 +917 9
17 893 710 79 50 711 407 0 893 952 708 0 +.0044 .0012 -.0015 0 1 0 0 0 1 14 893
 373 955 ?810 910 889 13 711 -720 720 810 910 79 81 1 955 2591 48 893 956 0 949
 954 957 14 720 376 958 ?917 717 882 13 711 -893 893 917 717 79 81 1 958 2597 48
 720 959 0 960 0 961 14 917 370 960 ?920 720 912 13 952 +910 910 920 720 79 81 1
 960 2596 48 917 962 0 963 958 964 14 920 363 963 ?714 917 919 13 708 -710 710 7
14 917 79 81 1 963 2595 48 920 965 0 966 960 967 14 714 355 966 ?712 920 825 13
 709 -712 712 712 920 79 14 710 359 968 ?910 712 784 13 708 -920 920 910 712 79
 81 1 968 2593 48 710 969 0 954 966 970 15 784 362 0 496 710 0 17 496 0 784 512
 895 173 183 494 0 0 +17 512 0 784 911 496 131 175 510 0 577 +17 895 0 784 496 2
83 181 897 905 0 422 +17 283 0 784 895 280 281 971 972 0 901 -17 897 0 896 898 4
22 281 895 905 0 0 -16 905 826 0 ?895 973 428 974 0 0 7 16 973 813 0 ?975 976 90
5 977 0 0 7 31 974 970 0 905 978 977 0 +-.0039 95e-5 .0015 0 0 -1 -1 0 0 25e-5 3
1 978 973 0 429 412 974 0 +-.0039 95e-5 .0015 0 0 -1 -1 0 0 55e-5 30 977 969 0 9
73 974 979 0 +-.00458733303010058 675599560426164e-19 .0015 0 0 1 30 979 968 0 9
76 977 980 0 +-.00485922536621158 .0001943454345648255 .0015 218360193699037e-30
 -1018230305580692e-31 -1 16 976 808 0 ?981 972 973 979 0 0 7 30 980 967 0 972 9
79 982 0 +-.00412657694675916 .001055654565435174 .0015 -.422618261740697 -.9063
07787036651 0 16 972 825 0 ?971 983 976 980 0 0 7 30 982 966 0 983 980 984 0 +-.
00412657694675916 .001055654565435174 6e-4 -.422618261740697 -.906307787036651 0
 16 983 847 0 ?904 985 972 982 0 0 7 30 984 965 0 985 982 986 0 +-.0043984692828
7016 .001182440043957384 6e-4 -.422618261740697 -.906307787036651 0 16 985 821 0
 ?987 988 983 984 0 0 7 30 986 964 0 988 984 989 0 +-.00439846928287016 .0011824
40043957384 .0015 -.422618261740697 -.906307787036651 0 16 988 832 0 ?990 991 98
5 986 0 0 7 30 989 963 0 991 986 992 0 +-.00508580231297074 -25e-5 .0015 0 0 1 1
6 991 804 0 ?993 994 988 989 0 0 7 30 992 962 0 994 989 995 0 +-.005085802312970
74 500000000000006e-19 .0015 0 -24093381610789e-29 -1 16 994 800 0 ?769 996 991
 992 0 0 7 31 995 961 0 996 992 997 0 +-.00508580231297074 3e-4 .0015 0 0 -1 -1
 0 0 55e-5 16 996 817 0 ?998 999 994 995 0 0 7 31 997 960 0 999 995 1000 0 +-.00
508580231297074 3e-4 6e-4 0 0 -1 -1 0 0 55e-5 16 999 848 0 ?1001 789 996 997 0 0
 7 31 1000 959 0 789 997 452 0 +-.00508580231297074 3e-4 6e-4 0 0 -1 -1 0 0 25e-
5 16 789 812 0 ?1002 786 999 1000 0 0 7 31 452 958 0 786 1000 449 0 +-.005085802
31297074 3e-4 .0015 0 0 -1 -1 0 0 25e-5 17 1002 0 1003 1004 981 260 274 789 0 0
 +15 1003 900 0 981 1005 0 17 1004 0 1003 271 1002 257 769 994 0 788 -17 981 0 1
003 1002 271 272 1006 976 0 987 +17 274 0 903 289 262 272 1002 789 0 981 -17 289
 0 903 427 274 287 987 985 0 1007 -17 262 0 903 274 253 260 765 439 0 769 -17 25
3 0 903 262 438 251 446 443 0 765 -16 439 803 0 ?765 480 436 444 0 0 7 17 769 0
 763 765 259 260 1004 994 0 1002 +17 259 0 763 769 250 257 778 480 0 1004 -17 77
8 0 784 256 788 248 259 480 0 783 +17 788 0 784 778 990 257 271 786 0 0 +17 990
 0 784 788 1008 269 292 988 0 0 +17 271 0 1003 981 1004 269 788 786 0 1006 -17 1
006 0 1009 292 987 269 981 976 0 990 -15 1009 906 0 1007 1010 0 17 292 0 1009 10
07 1006 290 990 988 0 1008 -17 987 0 1009 1006 1007 272 289 985 0 0 +17 1007 0 1
009 987 292 287 1011 411 0 907 +17 1011 0 1012 1013 907 290 1007 411 0 0 -16 411
 818 0 ?1007 902 418 409 0 0 7 17 907 0 1012 1011 433 287 427 425 0 0 -15 1012 9
27 0 1011 1014 0 17 433 0 1012 907 1013 122 195 408 0 0 +17 1013 0 1012 433 1011
 193 1008 429 0 0 +17 1008 0 784 990 911 290 1013 429 0 1011 -16 429 850 0 ?1013
 425 902 978 0 0 7 16 902 822 0 ?901 429 411 412 0 0 7 17 901 0 1015 971 286 281
 898 902 0 897 +30 412 974 0 902 409 978 0 +-.00412657694675916 .001055654565435
174 .0015 0 0 1 15 1015 909 0 901 1016 0 17 971 0 1015 1017 901 278 283 972 0 0
 +17 286 0 1015 901 1017 284 904 983 0 899 -17 1017 0 1015 286 971 275 975 973 0
 904 -17 904 0 903 1001 899 275 286 983 0 0 +17 1001 0 903 438 904 263 277 999 0
 0 +17 438 0 903 253 1001 296 265 436 0 446 +17 277 0 1018 975 1019 275 1001 999
 0 1017 -15 1018 903 0 975 1020 0 17 975 0 1018 998 277 278 1017 973 0 971 +17 1
019 0 1018 277 998 263 993 991 0 1001 -17 998 0 1018 1019 975 266 280 996 0 0 +1
7 993 0 1021 785 265 266 1019 991 0 998 +15 1021 897 0 407 935 0 17 785 0 1021 1
03 993 254 268 440 0 782 +17 265 0 1021 993 298 263 438 436 0 1019 -17 298 0 102
1 265 407 296 109 642 0 438 +17 407 0 1021 298 310 107 772 405 0 0 +17 109 0 757
 762 446 107 298 642 0 639 -17 310 0 1021 407 775 308 307 390 0 389 -17 775 0 10
21 310 103 305 404 402 0 776 -17 103 0 1021 775 785 99 782 640 0 404 +17 268 0 7
84 280 256 266 785 440 0 993 -17 280 0 784 283 268 278 998 996 0 975 -14 935 895
 1022 ?1005 766 1021 13 938 +0 0 1005 766 79 81 1 1022 2575 48 935 1023 0 1024 9
34 1025 14 1005 898 931 ?1020 935 1003 13 1026 +0 0 1020 935 79 50 938 939 0 935
 1026 936 0 +-.00508580231297074 -25e-5 .0015 0 -1 0 0 0 -1 51 1026 940 0 1005 1
027 938 0 --.00508580231297074 3e-4 .00105 0 0 -1 25e-5 -1 0 0 51 1027 941 0 102
0 1028 1026 0 +-.00508580231297074 3e-4 .00105 0 0 -1 55e-5 -1 0 0 14 1020 901 1
029 ?1010 1005 1018 13 1027 +0 0 1010 1005 79 50 1028 942 0 1010 1030 1027 0 +-.
00439846928287016 .001182440043957384 .0015 -.906307787036651 .422618261740697 -
24093381610789e-29 -.422618261740697 -.906307787036651 0 14 1010 904 1031 ?1016
 1020 1009 13 1028 +0 0 1016 1020 79 50 1030 943 0 1016 1032 1028 0 +-.004126576
94675916 .001055654565435174 .0015 .906307787036651 -.422618261740697 0 .4226182
61740697 .906307787036651 0 14 1016 907 1033 ?900 1010 1015 13 1030 +0 0 900 101
0 79 51 1032 944 0 900 1034 1030 0 +-.0039 95e-5 .00105 0 0 -1 25e-5 -1 0 0 14 9
00 916 1035 ?906 1016 896 13 1032 -0 0 906 1016 79 50 1034 945 0 906 1036 1032 0
 +-.00439846928287016 .001182440043957384 6e-4 0 0 1 1 0 0 14 906 919 1037 ?1014
 900 903 13 1034 -0 0 1014 900 79 51 1036 946 0 1014 1038 1034 0 --.0039 95e-5 .
00105 0 0 -1 55e-5 -1 0 0 14 1014 925 1039 ?771 906 1012 13 1036 -0 0 771 906 79
 50 1038 1153 0 771 1040 1036 0 +-.00708580231297074 500000000000006e-19 3e-4 0
 1807003620809175e-31 1 0 -1 1807003620809175e-31 14 771 1129 1024 ?780 1014 770
 13 1038 -0 0 780 1014 79 50 1040 1155 0 780 1041 1038 0 +-.00708580231297074 50
0000000000006e-19 .0018 0 72280144832367e-29 -1 0 1 72280144832367e-29 14 780 11
37 1042 ?774 771 779 13 1040 -0 0 774 771 79 50 1041 1158 0 774 1043 1040 0 +-.0
0708580231297074 -25e-5 3e-4 -1 0 0 0 0 1 14 774 1145 1044 ?815 780 773 13 1041
 +0 0 815 780 79 50 1043 1317 0 815 1045 1041 0 +.00758580231297074 499999999999
992e-19 -3e-4 -3009265538105065e-47 180700362080918e-30 -1 0 1 180700362080918e-
30 14 815 1293 1046 ?822 774 814 13 1043 -0 0 822 774 79 50 1045 1319 0 822 1047
 1043 0 +.00758580231297074 499999999999992e-19 -.0018 0 0 1 1 0 0 14 822 1301 1
048 ?752 815 821 13 1045 -0 0 752 815 79 50 1047 1322 0 752 694 1045 0 +.0075858
0231297074 -25e-5 -3e-4 1 0 0 0 0 -1 14 752 1309 1049 ?748 822 817 13 1047 +0 0
 748 822 79 51 694 1698 0 685 689 1047 0 +-643249059870655e-33 2e-4 .004 0 -1 0
 8e-4 0 0 -1 81 1 1049 2567 48 752 1050 0 1051 1048 1052 81 1 1050 2413 53 752 0
 1049 1053 1054 1055 81 1 1051 2566 48 344 1056 0 759 1049 1057 81 1 1048 2568 4
8 822 1053 0 1049 1046 1058 82 1 1052 1697710264 81 1 1053 2412 53 822 0 1048 10
59 1050 1060 81 1 1046 2569 48 815 1059 0 1048 951 1061 82 1 1058 1704526010 81
 1 1059 2411 53 815 0 1046 1062 1053 1063 81 1 951 2570 48 828 1064 0 1046 953 1
065 82 1 1061 1705050298 81 1 1064 2391 53 828 0 951 1066 1067 1068 81 1 953 257
1 48 810 1066 0 951 1044 1069 82 1 1065 -1605238598 81 1 1066 2390 53 810 0 953
 956 1064 1070 81 1 1044 2572 48 774 1062 0 953 1042 1071 82 1 1069 -1604058950
 81 1 1062 2410 53 774 0 1044 1072 1059 1073 81 1 1042 2573 48 780 1072 0 1044 1
024 1074 82 1 1071 -734265164 81 1 1072 2409 53 780 0 1042 1075 1062 1076 81 1 1
024 2574 48 771 1075 0 1042 1022 1077 82 1 1074 -727449414 81 1 1075 2408 53 771
 0 1024 1078 1072 1079 82 1 1077 -726925126 81 1 1078 2407 53 1014 0 1039 1080 1
075 1081 83 3 1079 1 1 .752941176470588 81 1 1039 2577 48 1014 1078 0 934 1037 1
082 81 1 1080 2406 53 906 0 1037 1083 1078 1084 83 3 1081 1 1 .752941176470588 8
1 1 1037 2578 48 906 1080 0 1039 1035 1085 81 1 1083 2405 53 900 0 1035 1086 108
0 1087 83 3 1084 1 1 .752941176470588 81 1 1035 2579 48 900 1083 0 1037 1033 108
8 81 1 1086 2404 53 1016 0 1033 1089 1083 1090 83 3 1087 1 1 .752941176470588 81
 1 1033 2580 48 1016 1086 0 1035 1031 1091 81 1 1089 2403 53 1010 0 1031 1092 10
86 1093 83 3 1090 1 1 .752941176470588 81 1 1031 2581 48 1010 1089 0 1033 1029 1
094 81 1 1092 2402 53 1020 0 1029 1095 1089 1096 83 3 1093 1 1 .752941176470588
 81 1 1029 2582 48 1020 1092 0 1031 931 1097 81 1 1095 2401 53 1005 0 931 1023 1
092 1098 83 3 1096 1 1 .752941176470588 81 1 931 2583 48 1005 1095 0 1029 928 10
99 81 1 1023 2400 53 935 0 1022 1100 1095 1101 83 3 1098 1 1 .752941176470588 81
 1 1100 2399 53 766 0 934 930 1023 1102 83 3 1101 1 1 .752941176470588 81 1 934
 2576 48 766 1100 0 1022 1039 1103 81 1 930 2398 53 925 0 928 1104 1100 1105 83
 3 1102 1 1 .752941176470588 81 1 1104 2397 53 800 0 932 1106 930 1107 83 3 1105
 1 1 .752941176470588 81 1 932 2585 48 800 1104 0 928 941 1108 81 1 1106 2396 53
 881 0 941 1109 1104 1110 83 3 1107 1 1 .752941176470588 81 1 941 2586 48 881 11
06 0 932 943 1111 81 1 1109 2395 53 875 0 943 1112 1106 1113 83 3 1110 1 1 .7529
41176470588 81 1 943 2587 48 875 1109 0 941 945 1114 81 1 1112 2394 53 858 0 945
 1115 1109 1116 83 3 1113 1 1 .752941176470588 81 1 945 2588 48 858 1112 0 943 9
47 1117 81 1 1115 2393 53 837 0 947 1067 1112 1118 83 3 1116 1 1 .75294117647058
8 81 1 947 2589 48 837 1115 0 945 949 1119 81 1 1067 2392 53 853 0 949 1064 1115
 1120 83 3 1118 1 1 .752941176470588 81 1 949 2590 48 853 1067 0 947 955 1121 83
 3 1120 1 1 .752941176470588 82 1 1121 -1610743650 82 1 1119 -1611661154 82 1 11
17 -1615593314 82 1 1114 -1616641890 82 1 1111 -1620049762 82 1 1108 -1620377414
 82 1 1103 1879048378 82 1 1099 1872363695 82 1 1097 1871446191 82 1 1094 186751
4031 82 1 1091 1866465455 82 1 1088 1863057583 82 1 1085 1862729914 82 1 1082 18
59518639 83 3 1076 1 1 .752941176470588 83 3 1073 1 1 .752941176470588 81 1 956
 2389 53 893 0 955 1122 1066 1123 83 3 1070 1 1 .752941176470588 81 1 1122 2388
 53 910 0 954 969 956 1124 83 3 1123 1 1 .752941176470588 81 1 954 2592 48 910 1
122 0 955 968 1125 81 1 969 2387 53 710 0 968 1126 1122 1127 83 3 1124 1 1 .7529
41176470588 81 1 1126 2386 53 712 0 713 1128 969 1129 83 3 1127 1 1 .75294117647
0588 81 1 713 2552 48 712 1126 0 704 719 1130 81 1 1128 2385 53 714 0 966 965 11
26 1131 83 3 1129 1 1 .752941176470588 81 1 966 2594 48 714 1128 0 968 963 1132
 81 1 965 2384 53 920 0 963 962 1128 1133 83 3 1131 1 1 .752941176470588 81 1 96
2 2383 53 917 0 960 959 965 1134 83 3 1133 1 1 .752941176470588 81 1 959 2382 53
 720 0 958 1135 962 1136 83 3 1134 1 1 .752941176470588 81 1 1135 2381 53 717 0
 719 1137 959 1138 83 3 1136 1 1 .752941176470588 81 1 719 2553 48 717 1135 0 71
3 724 1139 81 1 1137 2380 53 721 0 724 1140 1135 1141 83 3 1138 1 .7490196078431
37 0 81 1 724 2554 48 721 1137 0 719 728 1142 81 1 1140 2379 53 725 0 728 1143 1
137 1144 83 3 1141 1 1 .752941176470588 81 1 728 2555 48 725 1140 0 724 732 1145
 81 1 1143 2378 53 729 0 732 1146 1140 1147 83 3 1144 1 1 .752941176470588 81 1
 732 2556 48 729 1143 0 728 735 1148 81 1 1146 2377 53 663 0 737 1149 1143 1150
 83 3 1147 1 1 .752941176470588 81 1 737 2558 48 663 1146 0 735 740 1151 81 1 11
49 2376 53 680 0 740 1152 1146 1153 83 3 1150 1 1 1 81 1 740 2559 48 680 1149 0
 737 743 1154 81 1 1152 2375 53 683 0 743 1155 1149 1156 83 3 1153 1 1 1 81 1 74
3 2560 48 683 1152 0 740 747 1157 81 1 1155 2374 53 670 0 691 1158 1152 1159 83
 3 1156 1 1 1 81 1 691 2546 48 670 1155 0 0 688 1160 81 1 1158 2373 53 353 0 747
 1161 1155 1162 83 3 1159 1 1 1 81 1 747 2561 48 353 1158 0 743 750 1163 81 1 11
61 2372 53 674 0 735 1164 1158 1165 83 3 1162 1 1 1 81 1 735 2557 48 674 1161 0
 732 737 1166 81 1 1164 2371 53 700 0 704 703 1161 1167 83 3 1165 1 1 1 81 1 704
 2551 48 700 1164 0 699 713 1168 81 1 703 2370 53 73 0 699 0 1164 1169 83 3 1167
 1 1 .752941176470588 83 3 1169 1 1 .752941176470588 82 1 1168 -1587281762 82 1
 1166 1069285494 81 1 750 2562 48 748 1054 0 747 754 1170 82 1 1163 -124714814 8
1 1 1054 2414 53 748 0 750 1050 1171 1172 81 1 754 2563 48 751 1171 0 750 756 11
73 82 1 1170 -1307246406 81 1 1171 2415 53 751 0 754 1054 758 1174 82 1 1173 -13
05280326 81 1 758 2416 53 696 0 756 1171 1175 1176 83 3 1174 1 1 .75294117647058
8 81 1 1175 2417 53 75 0 695 758 690 1177 83 3 1176 1 1 .752941176470588 81 1 69
5 2549 48 75 1175 0 692 699 1178 81 1 690 2418 53 687 0 688 1175 1179 1180 83 3
 1177 1 1 .752941176470588 81 1 1179 2419 53 685 0 692 690 1181 1182 83 3 1180 1
 1 1 81 1 692 2548 48 685 1179 0 688 695 1183 81 1 1181 2420 53 350 0 759 1179 1
056 1184 83 3 1182 1 1 1 14 350 1759 759 ?344 685 349 13 1185 -0 0 344 685 79 81
 1 759 2565 48 350 1181 0 756 1051 1186 81 1 1056 2421 53 344 0 1051 1181 0 1187
 83 3 1184 1 1 1 14 344 1765 1051 ?0 350 84 13 698 -0 0 0 350 79 83 3 1187 1 1 1
 51 698 1781 0 344 1185 689 0 +-734788079488412e-33 2e-4 -.004 0 -1 0 8e-4 0 0 -
1 50 1185 1783 0 350 0 698 0 +-734788079488412e-33 2e-4 -.004 0 1 0 0 0 1 82 1 1
186 414318786 82 1 1183 406716610 82 1 1178 -1301348166 83 3 1172 1 1 .752941176
470588 82 1 1160 -124977014 82 1 1157 -125239102 82 1 1154 -125501302 82 1 1151
 -128581438 82 1 1148 461635696 82 1 1145 459669616 82 1 1142 1066860662 82 1 11
39 1064894582 82 1 1132 -1569521478 82 1 1130 -1568997238 82 1 1125 -1570897745
 83 3 1068 1 1 .752941176470588 83 3 1063 1 1 .752941176470588 83 3 1060 1 1 .75
2941176470588 82 1 1057 412156098 83 3 1055 1 1 .752941176470588 82 1 1025 18778
68730 17 911 0 784 1008 512 193 577 502 0 1013 -17 577 0 908 909 195 131 911 502
 0 0 +17 909 0 908 198 577 128 133 508 0 887 -17 133 0 745 175 130 131 909 508 0
 512 +17 887 0 715 515 885 128 198 583 0 0 -15 745 258 0 130 670 669 17 175 0 74
5 136 133 173 512 510 0 507 -17 130 0 745 133 136 128 515 513 0 909 -17 136 0 74
5 130 175 134 507 505 0 515 -17 507 0 889 183 886 173 136 505 0 496 +82 1 970 -1
569980230 82 1 967 -1570504566 82 1 964 -1571356514 82 1 961 -1574043490 82 1 95
7 -1573584721 82 1 933 -1623588706 17 226 0 798 241 214 224 846 842 0 850 -17 21
4 0 798 226 205 212 601 599 0 813 -17 846 0 849 851 850 212 226 842 0 0 +17 813
 0 808 601 211 212 851 832 0 846 +17 211 0 808 813 202 209 609 573 0 851 -133 41
9 1001 0 428 484 415 0 +415 -.00412657694675916 .001055654565435174 6e-4 -.0039
 .0012 6e-4 .4363323129985805 1.570796326794895 17 872 0 879 871 877 236 874 876
 0 0 -16 474 543 0 ?871 864 471 465 0 0 7 133 465 709 0 474 571 460 0 +460 .0046
2657694675916 .001055654565435174 -6e-4 .0044 .0012 -6e-4 .436332312998579 1.570
796326794895 17 229 0 831 835 805 227 799 802 0 838 -17 818 0 803 325 115 320 38
3 381 0 819 -17 325 0 803 386 818 323 322 369 0 368 -17 386 0 803 313 325 119 81
6 384 0 0 +17 313 0 803 217 386 311 121 620 0 797 +141 791 444 791 791 448 82 1
 760 -1303314246 15 738 132 0 528 663 662 17 528 0 738 528 528 0 1188 520 0 0 +1
7 1188 0 1189 1188 1188 0 528 520 0 0 -15 1189 148 0 1188 729 0 15 733 147 0 525
 729 1189 17 525 0 733 525 525 0 1190 523 0 0 +17 1190 0 730 1190 1190 0 525 523
 0 0 -15 730 151 0 1190 725 0 15 726 201 0 1191 721 1192 17 1191 0 726 1191 1191
 0 519 517 0 0 -15 1192 202 0 522 721 0 17 522 0 1192 522 522 0 1193 516 0 0 +17
 1193 0 675 1193 1193 0 522 516 0 0 -15 675 185 0 1193 674 0 17 519 0 722 519 51
9 0 1191 517 0 0 +15 722 205 0 519 717 0 82 1 705 1895891119 82 1 693 408879298
 17 95 0 682 684 546 328 90 96 0 0 +17 546 0 682 95 554 83 666 544 0 0 +17 554 0
 682 546 672 154 671 552 0 666 +17 666 0 662 665 97 154 546 544 0 0 -17 672 0 68
2 554 678 166 165 535 0 0 -141 598 597 598 598 592 141 589 603 589 589 586 141 4
66 465 466 466 460 141 453 787 453 453 449 141 420 419 420 420 415 31 351 1788 0
 345 0 348 0 +-734788079488412e-33 2e-4 -.004 0 -1 0 0 0 1 8e-4 19 74 95 0 7 0 1
7 13 S0 74 20 72 4 0 0 958 71 1056 10 0 0 0 0 0 0 0 0 0 0 0 0 0 0 0 0 81 2 71 19
42 65 7 0 10 0 0 1194 0 83 1 1194 1070 74 20 6 1 0 0 2 0 0 0 0 0 0 0 0 0 0 0 0 0
 0 0 0 0 0 0 80 2 5 1195 1196 9000 0 0 0 0 3 5 0 0 0 TFFFFFFFFFFFFF9 1 79 18 119
6 MULTI_BODY_ID_20011 0 
