<svg id="Layer_1" xmlns="http://www.w3.org/2000/svg" width="24" height="24" viewBox="0 0 24 24"><style>.st0{fill:#bababa}.st1{fill:#BBB}.st2{fill:#555}.st3{fill:#d30000}.st4{fill:#FFF}.st5{fill:#DDD}.st6{fill:#f26722}.st7{fill:silver}.st8{fill-rule:evenodd;clip-rule:evenodd;fill:#bababa}.st9{fill:#aeadad;stroke:#aeadad;stroke-linecap:round;stroke-linejoin:round;stroke-miterlimit:10}.st10,.st11{fill:#adadad}.st11{fill-rule:evenodd;clip-rule:evenodd}.st12{fill:none}.st13{fill-rule:evenodd;clip-rule:evenodd;fill:silver}.st14{fill:none;stroke:#adadad;stroke-width:1.7653;stroke-miterlimit:10}.st15{stroke-width:2}.st15,.st16{fill:none;stroke:#adadad;stroke-miterlimit:10}.st16{stroke-width:1.9803}.st17{stroke-width:2;stroke-linecap:round;stroke-linejoin:round}.st17,.st18{fill:none;stroke:#adadad;stroke-miterlimit:10}.st18{stroke-width:2.5}.st19{fill:#aeadad}.st20{stroke:#aeadad;stroke-width:2;stroke-linecap:round;stroke-linejoin:round}.st20,.st21{fill:none;stroke-miterlimit:10}.st21{stroke:#C00;stroke-width:2.5}.st22{fill:none;stroke:silver;stroke-width:1.1431}.st22,.st23{stroke-miterlimit:10}.st23{fill:#adadad;stroke:#adadad;stroke-width:2.3794;stroke-linecap:round;stroke-linejoin:round}.st24{fill:none}.st24,.st25{stroke:#BBB;stroke-width:1.0827;stroke-miterlimit:10}.st25{fill:#BBB}</style><path class="st0" d="M21.16 0H2.84A2.85 2.85 0 0 0 0 2.84v18.33C0 22.72 1.28 24 2.84 24h18.33a2.85 2.85 0 0 0 2.84-2.84V2.84A2.866 2.866 0 0 0 21.16 0zm-.45 6.99a7.1 7.1 0 0 1-1.65 1.72c.01.14.01.29.01.43 0 4.39-3.34 9.44-9.44 9.44a9.43 9.43 0 0 1-5.09-1.49 6.652 6.652 0 0 0 4.91-1.37 3.333 3.333 0 0 1-3.1-2.3c.2.04.41.06.62.06.3 0 .6-.04.87-.12a3.323 3.323 0 0 1-2.66-3.25v-.04c.45.25.96.4 1.5.41A3.383 3.383 0 0 1 5.22 7.7c0-.61.16-1.18.45-1.67A9.403 9.403 0 0 0 12.5 9.5c-.06-.24-.09-.5-.09-.76 0-1.83 1.49-3.32 3.32-3.32.95 0 1.82.4 2.42 1.05.76-.15 1.47-.43 2.11-.8-.25.77-.77 1.42-1.46 1.84.68-.08 1.31-.26 1.91-.52 0-.01 0-.01 0 0 0-.01 0-.01 0 0z"/></svg>