<svg id="Layer_1" xmlns="http://www.w3.org/2000/svg" width="24" height="24" viewBox="0 0 24 24"><style>.st0{fill:#bababa}.st1{fill:#BBB}.st2{fill:#555}.st3{fill:#d30000}.st4{fill:#FFF}.st5{fill:#DDD}.st6{fill:#f26722}.st7{fill:silver}.st8{fill-rule:evenodd;clip-rule:evenodd;fill:#bababa}.st9{fill:#aeadad;stroke:#aeadad;stroke-linecap:round;stroke-linejoin:round;stroke-miterlimit:10}.st10,.st11{fill:#adadad}.st11{fill-rule:evenodd;clip-rule:evenodd}.st12{fill:none}.st13{fill-rule:evenodd;clip-rule:evenodd;fill:silver}.st14{fill:none;stroke:#adadad;stroke-width:1.7653;stroke-miterlimit:10}.st15{stroke-width:2}.st15,.st16{fill:none;stroke:#adadad;stroke-miterlimit:10}.st16{stroke-width:1.9803}.st17{stroke-width:2;stroke-linecap:round;stroke-linejoin:round}.st17,.st18{fill:none;stroke:#adadad;stroke-miterlimit:10}.st18{stroke-width:2.5}.st19{fill:#aeadad}.st20{stroke:#aeadad;stroke-width:2;stroke-linecap:round;stroke-linejoin:round}.st20,.st21{fill:none;stroke-miterlimit:10}.st21{stroke:#C00;stroke-width:2.5}.st22{fill:none;stroke:silver;stroke-width:1.1431}.st22,.st23{stroke-miterlimit:10}.st23{fill:#adadad;stroke:#adadad;stroke-width:2.3794;stroke-linecap:round;stroke-linejoin:round}.st24{fill:none}.st24,.st25{stroke:#BBB;stroke-width:1.0827;stroke-miterlimit:10}.st25{fill:#BBB}</style><path class="st0" d="M16.97 6.5c-.56-.39-1.2-.54-1.86-.54-2.08-.02-4.17-.01-6.25 0-.6 0-1.18.13-1.7.44-.8.48-1.18 1.24-1.25 2.14-.07.84-.09 1.69-.09 2.53 0 1.37.02 2.74.04 4.12.01.65.14 1.29.52 1.85.49.72 1.22 1.07 2.06 1.13 1.18.08 4.8.11 5.42.09.65-.02 1.3-.03 1.94-.13 1.06-.16 1.81-.76 2.12-1.81.11-.37.17-.76.18-1.14.04-1.35.05-2.7.05-4.05 0-.86-.02-1.72-.09-2.57C18 7.71 17.67 7 16.97 6.5zm-5 9.45a3.87 3.87 0 0 1-3.85-3.91 3.856 3.856 0 0 1 3.92-3.83c2.11.01 3.83 1.77 3.82 3.9a3.877 3.877 0 0 1-3.89 3.84zm4.04-6.99a.9.9 0 0 1-.91-.91c0-.51.4-.91.91-.9.51 0 .91.41.9.92 0 .5-.4.9-.9.89z"/><path class="st0" d="M11.99 9.57a2.505 2.505 0 1 0 2.5 2.5c0-1.37-1.12-2.49-2.5-2.5z"/><path class="st0" d="M21.16 0H2.84A2.85 2.85 0 0 0 0 2.84v18.33C0 22.72 1.28 24 2.84 24h18.33a2.85 2.85 0 0 0 2.84-2.84V2.84A2.866 2.866 0 0 0 21.16 0zm-1.69 15.28c-.02.6-.12 1.19-.35 1.75-.58 1.41-1.65 2.21-3.13 2.43-.79.12-1.6.14-2.4.14-1.6.01-3.21-.01-4.82-.04-.8-.01-1.57-.19-2.26-.6-1.1-.64-1.73-1.62-1.91-2.87-.11-.8-.14-1.61-.14-2.42-.01-1.6.02-3.2.04-4.79.02-.58.12-1.15.33-1.69.57-1.44 1.65-2.27 3.15-2.49.79-.12 5.6-.13 7.19-.1.8.01 1.58.19 2.28.6 1.1.64 1.74 1.62 1.91 2.87.12.88.11 1.77.15 2.65.02.45 0 .9 0 1.35h.02c-.02 1.07-.03 2.14-.06 3.21z"/></svg>