<svg id="Layer_1" xmlns="http://www.w3.org/2000/svg" width="24" height="24" viewBox="0 0 24 24"><style>.st0{fill:#bababa}.st1{fill:#BBB}.st2{fill:#555}.st3{fill:#d30000}.st4{fill:#FFF}.st5{fill:#DDD}.st6{fill:#f26722}.st7{fill:silver}.st8{fill-rule:evenodd;clip-rule:evenodd;fill:#bababa}.st9{fill:#aeadad;stroke:#aeadad;stroke-linecap:round;stroke-linejoin:round;stroke-miterlimit:10}.st10,.st11{fill:#adadad}.st11{fill-rule:evenodd;clip-rule:evenodd}.st12{fill:none}.st13{fill-rule:evenodd;clip-rule:evenodd;fill:silver}.st14{fill:none;stroke:#adadad;stroke-width:1.7653;stroke-miterlimit:10}.st15{stroke-width:2}.st15,.st16{fill:none;stroke:#adadad;stroke-miterlimit:10}.st16{stroke-width:1.9803}.st17{stroke-width:2;stroke-linecap:round;stroke-linejoin:round}.st17,.st18{fill:none;stroke:#adadad;stroke-miterlimit:10}.st18{stroke-width:2.5}.st19{fill:#aeadad}.st20{stroke:#aeadad;stroke-width:2;stroke-linecap:round;stroke-linejoin:round}.st20,.st21{fill:none;stroke-miterlimit:10}.st21{stroke:#C00;stroke-width:2.5}.st22{fill:none;stroke:silver;stroke-width:1.1431}.st22,.st23{stroke-miterlimit:10}.st23{fill:#adadad;stroke:#adadad;stroke-width:2.3794;stroke-linecap:round;stroke-linejoin:round}.st24{fill:none}.st24,.st25{stroke:#BBB;stroke-width:1.0827;stroke-miterlimit:10}.st25{fill:#BBB}</style><path class="st0" d="M21.16 0H2.84A2.85 2.85 0 0 0 0 2.84v18.33C0 22.72 1.28 24 2.84 24h18.33a2.85 2.85 0 0 0 2.84-2.84V2.84A2.866 2.866 0 0 0 21.16 0zM13 15.64c-.94-.07-1.33-.54-2.07-.98-.4 2.12-.9 4.15-2.36 5.22-.45-3.21.66-5.61 1.18-8.17-.88-1.49.11-4.48 1.97-3.74 2.29.91-1.98 5.52.89 6.1 3 .6 4.22-5.2 2.36-7.08-2.68-2.72-7.82-.06-7.18 3.84.15.95 1.14 1.24.39 2.56-1.72-.38-2.23-1.74-2.16-3.54.11-2.96 2.66-5.03 5.22-5.31 3.24-.36 6.27 1.19 6.69 4.23.46 3.41-1.47 7.13-4.93 6.87z"/></svg>